<svg width="720" height="721" xmlns="http://www.w3.org/2000/svg" xmlns:xlink="http://www.w3.org/1999/xlink" xml:space="preserve" overflow="hidden"><g transform="translate(-136 -16)"><g><g><g><g><path d="M496 17C297.1 17 136 178.1 136 377 136 536.3 239.05 670.85 382.15 718.55 400.15 721.7 406.9 710.9 406.9 701.45 406.9 692.9 406.45 664.55 406.45 634.4 316 651.05 292.6 612.35 285.4 592.1 281.35 581.75 263.8 549.8 248.5 541.25 235.9 534.5 217.9 517.85 248.05 517.4 276.4 516.95 296.65 543.5 303.4 554.3 335.8 608.75 387.55 593.45 408.25 584 411.4 560.6 420.85 544.85 431.2 535.85 351.1 526.85 267.4 495.8 267.4 358.1 267.4 318.95 281.35 286.55 304.3 261.35 300.7 252.35 288.1 215.45 307.9 165.95 307.9 165.95 338.05 156.5 406.9 202.85 435.7 194.75 466.3 190.7 496.9 190.7 527.5 190.7 558.1 194.75 586.9 202.85 655.75 156.05 685.9 165.95 685.9 165.95 705.7 215.45 693.1 252.35 689.5 261.35 712.45 286.55 726.4 318.5 726.4 358.1 726.4 496.25 642.25 526.85 562.15 535.85 575.2 547.1 586.45 568.7 586.45 602.45 586.45 650.6 586 689.3 586 701.45 586 710.9 592.75 722.15 610.75 718.55 752.95 670.85 856 535.85 856 377 856 178.1 694.9 17 496 17Z" fill="#7A7D7D" fill-rule="evenodd" fill-opacity="1"/></g></g></g></g></g></svg>